<svg width="512" height="512" xmlns="http://www.w3.org/2000/svg">

 <g>
  <title>background</title>
  <rect fill="none" id="canvas_background" height="402" width="582" y="-1" x="-1"/>
 </g>
 <g>
  <title>Layer 1</title>
  <path fill="#3f3a3a" id="svg_2" d="m256.1,424.2c44.9,0 87.1,-17.5 118.9,-49.3c29.5,-29.5 46.9,-68.7 49,-110.4c0.2,-4.1 -3,-7.7 -7.1,-7.9c-4.1,-0.2 -7.7,3 -7.9,7.1c-1.9,37.9 -17.8,73.6 -44.7,100.5c-28.9,28.9 -67.4,44.9 -108.3,44.9s-79.4,-15.9 -108.3,-44.9c-59.7,-59.7 -59.7,-156.9 0,-216.6c50.9,-50.9 130.1,-59.4 190.3,-21.1l-16.9,20.7l48.5,-4.9l-4.9,-48.5l-17.1,21c-66.3,-43.2 -154.2,-34.1 -210.5,22.2c-65.6,65.6 -65.6,172.2 0,237.8c31.9,31.9 74.1,49.4 119,49.4z"/>
 </g>
</svg>