<svg width="32" height="32" xmlns="http://www.w3.org/2000/svg">

 <g>
  <title>background</title>
  <rect fill="none" id="canvas_background" height="402" width="582" y="-1" x="-1"/>
 </g>
 <g>
  <title>Layer 1</title>
  <path fill="#333333" id="svg_1" d="m24.4,11c0.1,0.1 0,0.3 -0.1,0.4l-8.1,4.5c0,0 -0.1,0 -0.1,0l0,0c0,0 -0.1,0 -0.1,0l-8.1,-4.5c-0.1,-0.1 -0.2,-0.3 -0.1,-0.4c0.1,-0.2 0.3,-0.2 0.4,-0.1l7.5,4.2c0.2,0.1 0.5,0.1 0.8,0l7.5,-4.2c0.1,-0.1 0.3,0 0.4,0.1z" class="st0"/>
  <path fill="#333333" id="svg_2" d="m16,2c-7.7,0 -14,6.3 -14,14c0,7.7 6.3,14 14,14c7.7,0 14,-6.3 14,-14c0,-7.7 -6.3,-14 -14,-14zm9.3,18.8c0,0.8 -0.6,1.4 -1.4,1.4l-15.9,0c-0.8,0 -1.4,-0.6 -1.4,-1.4l0,-9.5c0,-0.8 0.6,-1.4 1.4,-1.4l16,0c0.8,0 1.4,0.6 1.4,1.4l0,9.5l-0.1,0z" class="st0"/>
 </g>
</svg>