<svg width="512" height="512" xmlns="http://www.w3.org/2000/svg">

 <g>
  <title>background</title>
  <rect fill="none" id="canvas_background" height="402" width="582" y="-1" x="-1"/>
 </g>
 <g>
  <title>Layer 1</title>
  <path fill="#dd901c" id="svg_3" d="m335.4,221.4c0,-0.1 0,-0.2 -0.1,-0.2c0,-0.2 -0.1,-0.3 -0.1,-0.5c0,-0.1 -0.1,-0.3 -0.1,-0.4c0,-0.1 -0.1,-0.2 -0.1,-0.3c-0.2,-0.5 -0.4,-0.9 -0.7,-1.3c0,0 0,0 0,0l-31.8,-46.7c-1.4,-2.1 -3.7,-3.3 -6.2,-3.3l-80.6,0c-2.5,0 -4.8,1.2 -6.2,3.3l-31.8,46.6c0,0 0,0 0,0c-0.3,0.4 -0.5,0.9 -0.7,1.3c0,0.1 -0.1,0.2 -0.1,0.3c-0.1,0.1 -0.1,0.3 -0.1,0.4c0,0.2 -0.1,0.3 -0.1,0.5c0,0.1 0,0.2 -0.1,0.2c-0.1,0.5 -0.2,1 -0.2,1.5c0,0 0,0 0,0l0,112.9c0,4.1 3.4,7.5 7.5,7.5l144.1,0c4.1,0 7.5,-3.4 7.5,-7.5l0,-112.8c0,0 0,0 0,0c0,-0.6 0,-1.1 -0.1,-1.5zm-115.7,-37.7l72.6,0l21.5,31.6l-115.7,0l21.6,-31.6zm100.8,144.6l-129,0l0,-97.9l129.1,0l0,97.9l-0.1,0z"/>
 </g>
</svg>